<svg width="40" height="41" viewBox="0 0 40 41" fill="none" xmlns="http://www.w3.org/2000/svg">
<circle cx="20" cy="20.042" r="20" fill="url(#paint0_linear_308_1491)"/>
<path d="M17.9799 13.4528L14.4278 9.35279C14.0183 8.88031 13.2676 8.88241 12.7919 9.35909L9.87084 12.2853C9.00144 13.1557 8.75259 14.4481 9.25554 15.4844C12.2602 21.7053 17.2775 26.7293 23.4945 29.7426C24.5298 30.2455 25.8213 29.9966 26.6907 29.1263L29.6391 26.1728C30.1168 25.6951 30.1179 24.9402 29.6412 24.5307L25.5252 20.9976C25.0947 20.6281 24.4259 20.6764 23.9943 21.1089L22.5621 22.5431C22.4888 22.62 22.3923 22.6706 22.2874 22.6873C22.1825 22.704 22.075 22.6858 21.9815 22.6355C19.6405 21.2875 17.6985 19.3432 16.3535 17.0005C16.3031 16.9068 16.2849 16.7992 16.3016 16.6941C16.3183 16.589 16.369 16.4923 16.4459 16.4189L17.8739 14.9899C18.3065 14.5552 18.3537 13.8833 17.9799 13.4517V13.4528Z" stroke="white" stroke-width="2" stroke-linecap="round" stroke-linejoin="round"/>
<defs>
<linearGradient id="paint0_linear_308_1491" x1="2.27442" y1="16.6703" x2="41.3174" y2="23.5459" gradientUnits="userSpaceOnUse">
<stop offset="0.14" stop-color="#0193CC"/>
<stop offset="0.88" stop-color="#01D0CC"/>
</linearGradient>
</defs>
</svg>
