<svg width="30" height="31" viewBox="0 0 30 31" fill="none" xmlns="http://www.w3.org/2000/svg">
<path d="M22.3905 16.8569C22.2493 16.7154 22.0816 16.6032 21.8969 16.5267C21.7123 16.4501 21.5144 16.4107 21.3145 16.4107C21.1146 16.4107 20.9167 16.4501 20.7321 16.5267C20.5474 16.6032 20.3797 16.7154 20.2385 16.8569L17.808 19.2859C16.554 18.913 14.5116 18.1125 13.2575 16.8569C11.9274 15.5267 11.1664 13.428 10.8316 12.3033L13.2575 9.87742C13.399 9.73621 13.5112 9.56849 13.5878 9.38386C13.6643 9.19923 13.7037 9.00131 13.7037 8.80143C13.7037 8.60156 13.6643 8.40364 13.5878 8.21901C13.5112 8.03438 13.399 7.86666 13.2575 7.72545L7.16988 1.63781C6.87893 1.36319 6.49398 1.21021 6.09389 1.21021C5.6938 1.21021 5.30885 1.36319 5.0179 1.63781L0.895052 5.76218C0.313683 6.34051 -0.0135279 7.13799 0.000169315 7.94917C0.0336513 10.1148 0.602845 17.6392 6.53981 23.5761C12.4722 29.507 20.0011 30.0808 22.1683 30.1158H22.2109C23.0145 30.1158 23.7739 29.7992 24.3492 29.2239L28.4766 25.0965C28.6181 24.9553 28.7303 24.7876 28.8068 24.6029C28.8834 24.4183 28.9228 24.2204 28.9228 24.0205C28.9228 23.8206 28.8834 23.6227 28.8068 23.4381C28.7303 23.2535 28.6181 23.0857 28.4766 22.9445L22.3905 16.8569ZM22.1972 27.0719C20.2979 27.04 13.7993 26.5301 8.69179 21.4226C3.566 16.2968 3.0729 9.77698 3.04399 7.91721L6.09389 4.86578L10.0295 8.80143L8.06172 10.7693C7.69951 11.1315 7.54427 11.655 7.64928 12.1572C7.68581 12.3323 8.57917 16.4825 11.1055 19.0089C13.6319 21.5352 17.7822 22.4286 17.9572 22.4651C18.2046 22.5179 18.4612 22.5078 18.7037 22.4358C18.9462 22.3637 19.1667 22.232 19.3452 22.0527L21.313 20.0849L25.2486 24.0205L22.1972 27.0719Z" fill="white"/>
<path d="M20.9949 6.96961L16.7488 2.72196V13.3677H27.3945L23.1469 9.12159L30 2.26843L27.8481 0.116455L20.9949 6.96961Z" fill="white"/>
</svg>
