<svg width="40" height="41" viewBox="0 0 40 41" fill="none" xmlns="http://www.w3.org/2000/svg">
<circle cx="20" cy="20.042" r="20" fill="url(#paint0_linear_308_1495)"/>
<path d="M20.9981 34C18.2291 34 15.5224 33.1789 13.2201 31.6406C10.9178 30.1022 9.12337 27.9157 8.06374 25.3576C7.00411 22.7994 6.72687 19.9845 7.26706 17.2687C7.80725 14.553 9.14062 12.0584 11.0986 10.1005C13.0565 8.14258 15.5511 6.80921 18.2668 6.26901C20.9825 5.72882 23.7975 6.00607 26.3556 7.06569C28.9138 8.12532 31.1003 9.91973 32.6386 12.222C34.177 14.5243 34.9981 17.2311 34.9981 20C34.9981 23.713 33.5231 27.274 30.8975 29.8995C28.272 32.525 24.7111 34 20.9981 34ZM20.9981 8.00001C18.6247 8.00001 16.3046 8.70379 14.3312 10.0224C12.3578 11.3409 10.8198 13.2151 9.9115 15.4078C9.00325 17.6005 8.76561 20.0133 9.22863 22.3411C9.69165 24.6689 10.8345 26.8071 12.5128 28.4853C14.191 30.1635 16.3292 31.3064 18.657 31.7694C20.9847 32.2325 23.3975 31.9948 25.5903 31.0866C27.783 30.1783 29.6571 28.6402 30.9757 26.6668C32.2943 24.6935 32.9981 22.3734 32.9981 20C32.9981 16.8174 31.7338 13.7652 29.4833 11.5147C27.2329 9.26429 24.1807 8.00001 20.9981 8.00001Z" fill="white"/>
<path d="M25.588 26L19.998 20.41V11H21.998V19.58L26.998 24.59L25.588 26Z" fill="white"/>
<defs>
<linearGradient id="paint0_linear_308_1495" x1="2.27442" y1="16.6703" x2="41.3174" y2="23.5459" gradientUnits="userSpaceOnUse">
<stop offset="0.14" stop-color="#0193CC"/>
<stop offset="0.88" stop-color="#01D0CC"/>
</linearGradient>
</defs>
</svg>
