<svg width="40" height="41" viewBox="0 0 40 41" fill="none" xmlns="http://www.w3.org/2000/svg">
<circle cx="20" cy="20.042" r="20" fill="url(#paint0_linear_308_1492)"/>
<path d="M31.1409 11H8.85519C8.38108 11 7.99805 11.3656 7.99805 11.8182V28.1818C7.99805 28.6344 8.38108 29 8.85519 29H31.1409C31.615 29 31.998 28.6344 31.998 28.1818V11.8182C31.998 11.3656 31.615 11 31.1409 11ZM30.0695 13.833V27.1591H9.92662V13.833L9.18733 13.2832L10.24 11.992L11.3864 12.8435H28.6123L29.7588 11.992L30.8114 13.2832L30.0695 13.833ZM28.6123 12.8409L19.998 19.233L11.3838 12.8409L10.2373 11.9895L9.18465 13.2807L9.92394 13.8304L19.0739 20.6213C19.3371 20.8164 19.6608 20.9224 19.994 20.9224C20.3272 20.9224 20.651 20.8164 20.9141 20.6213L30.0695 13.833L30.8088 13.2832L29.7561 11.992L28.6123 12.8409Z" fill="white"/>
<defs>
<linearGradient id="paint0_linear_308_1492" x1="2.27442" y1="16.6703" x2="41.3174" y2="23.5459" gradientUnits="userSpaceOnUse">
<stop offset="0.14" stop-color="#0193CC"/>
<stop offset="0.88" stop-color="#01D0CC"/>
</linearGradient>
</defs>
</svg>
