<svg width="40" height="40" viewBox="0 0 40 40" fill="none" xmlns="http://www.w3.org/2000/svg">
<circle cx="20" cy="20" r="20" fill="url(#paint0_linear_301_1276)"/>
<path d="M9.91601 18.9476H30.7589C31.2647 18.9476 31.6748 19.3577 31.6748 19.8636C31.6748 20.3695 31.2647 20.7795 30.7589 20.7795H9.91601C9.41012 20.7795 9.00007 20.3695 9.00007 19.8636C9.00007 19.3577 9.41012 18.9476 9.91601 18.9476Z" fill="white"/>
<path d="M9.91601 12H30.7589C31.2647 12 31.6748 12.4101 31.6748 12.9159C31.6748 13.4218 31.2647 13.8319 30.7589 13.8319H9.91601C9.41012 13.8319 9.00007 13.4218 9.00007 12.9159C9.00007 12.4101 9.41012 12 9.91601 12Z" fill="white"/>
<path d="M9.91601 25.8953H30.7589C31.2647 25.8953 31.6748 26.3053 31.6748 26.8112C31.6748 27.3171 31.2647 27.7271 30.7589 27.7271H9.91601C9.41012 27.7271 9.00007 27.3171 9.00007 26.8112C9.00007 26.3053 9.41012 25.8953 9.91601 25.8953Z" fill="white"/>
<defs>
<linearGradient id="paint0_linear_301_1276" x1="2.27442" y1="16.6283" x2="41.3174" y2="23.504" gradientUnits="userSpaceOnUse">
<stop offset="0.14" stop-color="#0193CC"/>
<stop offset="0.88" stop-color="#01D0CC"/>
</linearGradient>
</defs>
</svg>
