<svg width="34" height="34" viewBox="0 0 34 34" fill="none" xmlns="http://www.w3.org/2000/svg">
<path d="M8.32075 24.5849L23.0589 9.84676C23.4166 9.48908 23.9965 9.48905 24.3542 9.84676C24.7119 10.2045 24.7119 10.7844 24.3542 11.1421L9.61608 25.8802C9.25836 26.2379 8.67846 26.2379 8.32075 25.8802C7.96306 25.5225 7.96303 24.9426 8.32075 24.5849Z" fill="white"/>
<path d="M9.57905 9.88386L24.3172 24.622C24.6749 24.9797 24.6749 25.5596 24.3172 25.9173C23.9595 26.275 23.3795 26.275 23.0219 25.9173L8.28372 11.1792C7.92601 10.8215 7.92604 10.2415 8.28372 9.88386C8.64141 9.52618 9.22133 9.52614 9.57905 9.88386Z" fill="white"/>
</svg>
