<svg width="30" height="30" viewBox="0 0 30 30" fill="none" xmlns="http://www.w3.org/2000/svg">
<circle cx="15" cy="15" r="15" fill="url(#paint0_linear_487_1694)"/>
<path d="M13.6988 9.81688L10.6541 6.3024C10.3031 5.89741 9.65959 5.89921 9.25189 6.3078L6.74811 8.81609C6.00291 9.56219 5.78961 10.6701 6.22071 11.5584C8.79615 16.8908 13.0967 21.1974 18.4255 23.7803C19.3129 24.2114 20.4199 23.9981 21.1651 23.252L23.6923 20.7203C24.1018 20.3108 24.1027 19.6637 23.6941 19.3127L20.1661 16.2842C19.7971 15.9675 19.2238 16.0089 18.8539 16.3796L17.6263 17.609C17.5635 17.6749 17.4808 17.7183 17.3909 17.7326C17.301 17.7469 17.2088 17.7313 17.1286 17.6882C15.1221 16.5327 13.4576 14.8661 12.3047 12.858C12.2615 12.7776 12.2459 12.6854 12.2602 12.5953C12.2745 12.5052 12.3179 12.4224 12.3839 12.3594L13.6079 11.1345C13.9787 10.7619 14.0192 10.1859 13.6988 9.81598V9.81688Z" stroke="white" stroke-width="1.83999" stroke-linecap="round" stroke-linejoin="round"/>
<defs>
<linearGradient id="paint0_linear_487_1694" x1="1.70582" y1="12.4712" x2="30.9881" y2="17.628" gradientUnits="userSpaceOnUse">
<stop offset="0.14" stop-color="#0193CC"/>
<stop offset="0.88" stop-color="#01D0CC"/>
</linearGradient>
</defs>
</svg>
