<svg width="123" height="27" viewBox="0 0 123 27" fill="none" xmlns="http://www.w3.org/2000/svg">
<path d="M38.922 22.252C37.896 22.252 37.002 22.009 36.24 21.523C35.484 21.031 34.896 20.329 34.476 19.417C34.056 18.505 33.846 17.41 33.846 16.132C33.846 14.812 34.062 13.705 34.494 12.811C34.932 11.911 35.532 11.233 36.294 10.777C37.062 10.315 37.938 10.084 38.922 10.084C40.284 10.084 41.346 10.414 42.108 11.074C42.876 11.734 43.368 12.592 43.584 13.648L41.316 14.062C41.13 13.45 40.833 12.955 40.425 12.577C40.017 12.199 39.516 12.01 38.922 12.01C38.4 12.01 37.929 12.163 37.509 12.469C37.089 12.769 36.753 13.225 36.501 13.837C36.255 14.449 36.132 15.214 36.132 16.132C36.132 16.996 36.24 17.74 36.456 18.364C36.678 18.988 36.996 19.468 37.41 19.804C37.824 20.14 38.328 20.308 38.922 20.308C39.684 20.308 40.272 20.107 40.686 19.705C41.106 19.297 41.316 18.778 41.316 18.148H43.584C43.584 19.018 43.395 19.759 43.017 20.371C42.645 20.977 42.111 21.442 41.415 21.766C40.719 22.09 39.888 22.252 38.922 22.252ZM48.2062 10.318V20.146H53.0122V22H46.0822V10.318H48.2062ZM54.9587 22V10.318H62.4647V12.154H57.0827V15.232H62.1407V17.068H57.0827V20.146H62.4647V22H54.9587ZM64.2632 22L68.2412 10.318H70.9052L74.7212 22H72.4892L71.6792 19.48H67.3412L66.5132 22H64.2632ZM67.8812 17.878H71.1752L69.5372 12.856L67.8812 17.878ZM76.7728 10.318H79.0948L84.4048 18.652H84.2428V10.318H86.3668V22H84.2068L78.5548 13.162H78.8968V22H76.7728V10.318ZM89.6571 22V10.318H93.7791C95.0931 10.318 96.1161 10.642 96.8481 11.29C97.5861 11.938 97.9551 12.856 97.9551 14.044C97.9551 15.22 97.5861 16.132 96.8481 16.78C96.1161 17.428 95.0931 17.752 93.7791 17.752H91.7991V22H89.6571ZM91.7991 15.898H93.7791C94.4391 15.898 94.9371 15.724 95.2731 15.376C95.6091 15.028 95.7771 14.584 95.7771 14.044C95.7771 13.492 95.6091 13.039 95.2731 12.685C94.9371 12.331 94.4391 12.154 93.7791 12.154H91.7991V15.898ZM100.153 22V10.318H104.473C105.871 10.318 106.942 10.645 107.686 11.299C108.436 11.953 108.811 12.82 108.811 13.9C108.811 14.962 108.436 15.82 107.686 16.474C106.942 17.122 105.871 17.446 104.473 17.446H102.277V22H100.153ZM106.471 22L103.375 16.528H105.643L109.243 22H106.471ZM102.277 16.024H104.257C105.037 16.024 105.628 15.847 106.03 15.493C106.432 15.133 106.633 14.668 106.633 14.098C106.633 13.516 106.45 13.048 106.084 12.694C105.718 12.334 105.181 12.154 104.473 12.154H102.277V16.024ZM116.201 22.252C115.163 22.252 114.245 22.024 113.447 21.568C112.655 21.112 112.034 20.431 111.584 19.525C111.134 18.619 110.909 17.494 110.909 16.15C110.909 14.782 111.134 13.651 111.584 12.757C112.034 11.857 112.655 11.188 113.447 10.75C114.245 10.306 115.163 10.084 116.201 10.084C117.245 10.084 118.166 10.312 118.964 10.768C119.762 11.218 120.386 11.893 120.836 12.793C121.286 13.693 121.511 14.812 121.511 16.15C121.511 17.512 121.286 18.646 120.836 19.552C120.386 20.458 119.762 21.136 118.964 21.586C118.166 22.03 117.245 22.252 116.201 22.252ZM116.201 20.326C117.155 20.326 117.911 19.966 118.469 19.246C119.033 18.526 119.314 17.488 119.314 16.132C119.314 14.824 119.033 13.807 118.469 13.081C117.911 12.355 117.155 11.992 116.201 11.992C115.265 11.992 114.515 12.358 113.951 13.09C113.387 13.816 113.105 14.836 113.105 16.15C113.105 17.5 113.387 18.535 113.951 19.255C114.515 19.969 115.265 20.326 116.201 20.326Z" fill="url(#paint0_linear_182_16169)"/>
<path d="M16.5236 6.71263L10.1013 0L0 10.5603H12.8419L16.5236 6.71263Z" fill="url(#paint1_linear_182_16169)"/>
<path d="M19.692 3.40988L11.7427 0.09375L17.12 5.93262L19.692 3.40988Z" fill="url(#paint2_linear_182_16169)"/>
<path d="M26.5263 19.3136L24.1539 18.2169C23.9779 18.1392 23.7883 18.097 23.596 18.0927C23.4036 18.0883 23.2123 18.1219 23.0329 18.1914C22.8535 18.261 22.6896 18.3653 22.5506 18.4982C22.4115 18.6311 22.2999 18.7901 22.2223 18.9662L22.0901 19.2695L27.1434 21.5486L27.2756 21.2452C27.3532 21.0692 27.3954 20.8796 27.3998 20.6872C27.4042 20.4949 27.3706 20.3036 27.301 20.1242C27.2314 19.9448 27.1272 19.7809 26.9943 19.6419C26.8614 19.5028 26.7023 19.3912 26.5263 19.3136Z" fill="url(#paint3_linear_182_16169)"/>
<path d="M4.15088 11.6362C4.27533 12.7978 5.41096 21.0246 12.6836 21.748V14.3145H9.09525L11.6569 11.6362H4.15088Z" fill="url(#paint4_linear_182_16169)"/>
<path d="M26.752 18.4449L26.9023 18.5149C27.2072 18.6521 27.4781 18.8548 27.6957 19.1087V16.5781L26.752 18.4449Z" fill="url(#paint5_linear_182_16169)"/>
<path d="M21.2112 19.0285L21.2319 19.0103L21.3616 18.7174C21.5343 18.3044 21.8162 17.9462 22.1771 17.6813C22.5379 17.4164 22.9641 17.2547 23.4098 17.2136C23.7885 17.1902 24.1672 17.2578 24.5144 17.4106H24.5299L25.8937 14.2993H13.9878V21.7898C14.2808 21.7898 14.5919 21.7638 14.9134 21.7301C17.2318 21.4651 19.4214 20.5257 21.2112 19.0285Z" fill="url(#paint6_linear_182_16169)"/>
<path d="M27.5066 10.6436L20.8432 3.80908L11.6597 13.2259H26.3709L27.5066 10.6436Z" fill="url(#paint7_linear_182_16169)"/>
<path d="M30.4777 7.66456C30.138 7.51418 29.8113 7.53493 29.6998 7.85383L24.9421 18.6708L25.4996 18.9171L30.8484 8.35942C31.0144 8.06903 30.8173 7.81494 30.4777 7.66456Z" fill="url(#paint8_linear_182_16169)"/>
<path d="M21.9865 16.8999C21.6135 16.8999 21.2558 16.7519 20.9919 16.4885C20.7279 16.225 20.5793 15.8676 20.5786 15.4946C20.5786 15.8673 20.4306 16.2248 20.167 16.4883C19.9035 16.7518 19.546 16.8999 19.1733 16.8999C19.5463 16.9006 19.9037 17.0492 20.1672 17.3132C20.4306 17.5771 20.5786 17.9348 20.5786 18.3078C20.5786 17.9344 20.7269 17.5763 20.991 17.3123C21.255 17.0482 21.6131 16.8999 21.9865 16.8999Z" fill="white"/>
<path d="M17.8745 15.8208C17.5884 15.8208 17.3141 15.7071 17.1118 15.5049C16.9095 15.3026 16.7959 15.0282 16.7959 14.7422C16.7959 15.0282 16.6822 15.3026 16.48 15.5049C16.2777 15.7071 16.0033 15.8208 15.7173 15.8208C16.0033 15.8208 16.2777 15.9344 16.48 16.1367C16.6822 16.339 16.7959 16.6133 16.7959 16.8994C16.7959 16.6133 16.9095 16.339 17.1118 16.1367C17.3141 15.9344 17.5884 15.8208 17.8745 15.8208Z" fill="white"/>
<path d="M21.289 12.4218C21.6814 12.4218 21.9994 12.1037 21.9994 11.7114C21.9994 11.319 21.6814 11.001 21.289 11.001C20.8967 11.001 20.5786 11.319 20.5786 11.7114C20.5786 12.1037 20.8967 12.4218 21.289 12.4218Z" fill="white"/>
<path d="M26.866 22.101L21.2864 20.1097C19.5856 21.515 17.9159 22.1839 15.738 22.534C15.158 22.628 14.5725 22.6834 13.9853 22.6999C4.16652 22.9021 3.24609 11.5796 3.24609 11.5796C3.24609 17.6829 6.75668 25.1371 14.719 26.099C17.431 26.4257 21.1075 26.3583 24.5481 24.1207C25.8938 23.2444 26.6431 22.4795 26.866 22.101Z" fill="url(#paint9_linear_182_16169)"/>
<defs>
<linearGradient id="paint0_linear_182_16169" x1="38.1175" y1="14.7299" x2="95.8199" y2="58.2799" gradientUnits="userSpaceOnUse">
<stop offset="0.14" stop-color="#0193CC"/>
<stop offset="0.88" stop-color="#01D0CC"/>
</linearGradient>
<linearGradient id="paint1_linear_182_16169" x1="8.26309" y1="10.5603" x2="8.26309" y2="0" gradientUnits="userSpaceOnUse">
<stop offset="0.1" stop-color="#36326A"/>
<stop offset="0.83" stop-color="#4872C6"/>
</linearGradient>
<linearGradient id="paint2_linear_182_16169" x1="15.7174" y1="5.93262" x2="15.7174" y2="0.09375" gradientUnits="userSpaceOnUse">
<stop offset="0.1" stop-color="#36326A"/>
<stop offset="0.83" stop-color="#4872C6"/>
</linearGradient>
<linearGradient id="paint3_linear_182_16169" x1="24.1228" y1="22.106" x2="27.413" y2="11.3928" gradientUnits="userSpaceOnUse">
<stop offset="0.14" stop-color="#0193CC"/>
<stop offset="0.77" stop-color="#01D0CC"/>
</linearGradient>
<linearGradient id="paint4_linear_182_16169" x1="8.41854" y1="21.7505" x2="8.41854" y2="11.6362" gradientUnits="userSpaceOnUse">
<stop offset="0.1" stop-color="#36326A"/>
<stop offset="0.83" stop-color="#4872C6"/>
</linearGradient>
<linearGradient id="paint5_linear_182_16169" x1="27.2238" y1="19.1087" x2="27.2238" y2="16.5781" gradientUnits="userSpaceOnUse">
<stop offset="0.1" stop-color="#36326A"/>
<stop offset="0.83" stop-color="#4872C6"/>
</linearGradient>
<linearGradient id="paint6_linear_182_16169" x1="19.9407" y1="21.8053" x2="19.9407" y2="14.3149" gradientUnits="userSpaceOnUse">
<stop offset="0.1" stop-color="#36326A"/>
<stop offset="0.83" stop-color="#4872C6"/>
</linearGradient>
<linearGradient id="paint7_linear_182_16169" x1="19.5831" y1="13.2259" x2="19.5831" y2="3.80908" gradientUnits="userSpaceOnUse">
<stop offset="0.1" stop-color="#36326A"/>
<stop offset="0.83" stop-color="#4872C6"/>
</linearGradient>
<linearGradient id="paint8_linear_182_16169" x1="25.1755" y1="22.4303" x2="28.4631" y2="11.717" gradientUnits="userSpaceOnUse">
<stop offset="0.14" stop-color="#0193CC"/>
<stop offset="0.88" stop-color="#01D0CC"/>
</linearGradient>
<linearGradient id="paint9_linear_182_16169" x1="4.58914" y1="17.6751" x2="26.5886" y2="23.9159" gradientUnits="userSpaceOnUse">
<stop offset="0.14" stop-color="#0193CC"/>
<stop offset="0.88" stop-color="#01D0CC"/>
</linearGradient>
</defs>
</svg>
