<svg width="98" height="98" viewBox="0 0 98 98" fill="none" xmlns="http://www.w3.org/2000/svg">
<path d="M13.4008 88.9976C12.4617 88.9976 11.6433 88.7752 10.9458 88.3303C10.2538 87.88 9.71554 87.2374 9.33108 86.4025C8.94662 85.5677 8.75439 84.5654 8.75439 83.3955C8.75439 82.1872 8.95211 81.1739 9.34755 80.3556C9.74849 79.5317 10.2977 78.9111 10.9952 78.4937C11.6982 78.0708 12.5001 77.8593 13.4008 77.8593C14.6476 77.8593 15.6197 78.1614 16.3172 78.7656C17.0202 79.3697 17.4706 80.1551 17.6683 81.1217L15.5923 81.5007C15.422 80.9405 15.1501 80.4874 14.7767 80.1414C14.4032 79.7954 13.9446 79.6223 13.4008 79.6223C12.923 79.6223 12.4919 79.7624 12.1074 80.0425C11.723 80.3171 11.4154 80.7345 11.1847 81.2947C10.9595 81.855 10.8469 82.5552 10.8469 83.3955C10.8469 84.1864 10.9458 84.8675 11.1435 85.4387C11.3467 86.0099 11.6378 86.4492 12.0168 86.7568C12.3958 87.0644 12.8571 87.2181 13.4008 87.2181C14.0984 87.2181 14.6366 87.0342 15.0156 86.6662C15.4 86.2927 15.5923 85.8176 15.5923 85.2409H17.6683C17.6683 86.0373 17.4953 86.7156 17.1493 87.2758C16.8088 87.8305 16.32 88.2562 15.6829 88.5528C15.0458 88.8494 14.2851 88.9976 13.4008 88.9976ZM21.8994 78.0735V87.0699H26.2987V88.767H19.9551V78.0735H21.8994ZM28.0805 88.767V78.0735H34.9513V79.7542H30.0248V82.5717H34.6547V84.2523H30.0248V87.0699H34.9513V88.767H28.0805ZM36.5976 88.767L40.239 78.0735H42.6775L46.1706 88.767H44.1275L43.386 86.4602H39.4151L38.6572 88.767H36.5976ZM39.9094 84.9938H42.9247L41.4253 80.3968L39.9094 84.9938ZM48.0486 78.0735H50.1741L55.0347 85.7023H54.8865V78.0735H56.8307V88.767H54.8535L49.6798 80.6769H49.9928V88.767H48.0486V78.0735ZM59.8426 88.767V78.0735H63.6158C64.8186 78.0735 65.755 78.3701 66.4251 78.9633C67.1006 79.5564 67.4384 80.3968 67.4384 81.4842C67.4384 82.5607 67.1006 83.3955 66.4251 83.9887C65.755 84.5819 64.8186 84.8784 63.6158 84.8784H61.8034V88.767H59.8426ZM61.8034 83.1813H63.6158C64.22 83.1813 64.6758 83.0221 64.9834 82.7035C65.2909 82.385 65.4447 81.9785 65.4447 81.4842C65.4447 80.9789 65.2909 80.5643 64.9834 80.2402C64.6758 79.9162 64.22 79.7542 63.6158 79.7542H61.8034V83.1813ZM69.4499 88.767V78.0735H73.4043C74.684 78.0735 75.6644 78.3729 76.3454 78.9715C77.0319 79.5702 77.3752 80.3638 77.3752 81.3524C77.3752 82.3245 77.0319 83.1099 76.3454 83.7086C75.6644 84.3018 74.684 84.5983 73.4043 84.5983H71.3941V88.767H69.4499ZM75.2332 88.767L72.3992 83.758H74.4753L77.7707 88.767H75.2332ZM71.3941 83.2967H73.2066C73.9206 83.2967 74.4616 83.1347 74.8295 82.8106C75.1975 82.4811 75.3815 82.0554 75.3815 81.5337C75.3815 81.0009 75.214 80.5725 74.879 80.2485C74.544 79.9189 74.0524 79.7542 73.4043 79.7542H71.3941V83.2967ZM84.1398 88.9976C83.1897 88.9976 82.3494 88.7889 81.6189 88.3715C80.8939 87.9541 80.3255 87.3307 79.9135 86.5014C79.5016 85.6721 79.2957 84.6423 79.2957 83.412C79.2957 82.1598 79.5016 81.1245 79.9135 80.3061C80.3255 79.4823 80.8939 78.8699 81.6189 78.469C82.3494 78.0625 83.1897 77.8593 84.1398 77.8593C85.0955 77.8593 85.9386 78.068 86.669 78.4854C87.3995 78.8974 87.9707 79.5152 88.3826 80.3391C88.7945 81.1629 89.0005 82.1872 89.0005 83.412C89.0005 84.6588 88.7945 85.6968 88.3826 86.5261C87.9707 87.3555 87.3995 87.9761 86.669 88.388C85.9386 88.7944 85.0955 88.9976 84.1398 88.9976ZM84.1398 87.2346C85.0131 87.2346 85.7051 86.9051 86.2159 86.246C86.7322 85.5869 86.9903 84.6368 86.9903 83.3955C86.9903 82.1982 86.7322 81.2673 86.2159 80.6027C85.7051 79.9382 85.0131 79.6059 84.1398 79.6059C83.283 79.6059 82.5965 79.9409 82.0802 80.611C81.564 81.2755 81.3058 82.2092 81.3058 83.412C81.3058 84.6478 81.564 85.5952 82.0802 86.2543C82.5965 86.9078 83.283 87.2346 84.1398 87.2346Z" fill="url(#paint0_linear_439_868)"/>
<path d="M52.0264 22.6572L35.1713 5.03998L8.6604 32.7553H42.3638L52.0264 22.6572Z" fill="url(#paint1_linear_439_868)"/>
<path d="M60.3418 13.988L39.4788 5.28485L53.5916 20.6089L60.3418 13.988Z" fill="url(#paint2_linear_439_868)"/>
<path d="M78.2788 55.7277L72.0525 52.8493C71.5905 52.6456 71.0929 52.5348 70.5881 52.5233C70.0833 52.5119 69.5812 52.6 69.1104 52.7826C68.6397 52.9652 68.2095 53.2388 67.8445 53.5876C67.4795 53.9365 67.1867 54.3539 66.983 54.8159L66.636 55.612L79.8983 61.5933L80.2453 60.7972C80.4491 60.3352 80.5599 59.8376 80.5713 59.3328C80.5828 58.828 80.4947 58.3259 80.3121 57.8551C80.1294 57.3844 79.8559 56.9542 79.507 56.5892C79.1581 56.2242 78.7408 55.9314 78.2788 55.7277Z" fill="url(#paint3_linear_439_868)"/>
<path d="M19.5547 35.5792C19.8813 38.6277 22.8618 60.2189 41.9488 62.1174V42.6084H32.5312L39.2542 35.5792H19.5547Z" fill="url(#paint4_linear_439_868)"/>
<path d="M78.8706 53.4482L79.2653 53.632C80.0655 53.992 80.7764 54.5241 81.3475 55.1902V48.5489L78.8706 53.4482Z" fill="url(#paint5_linear_439_868)"/>
<path d="M64.3293 54.9793L64.3838 54.9317L64.724 54.1627C65.1774 53.0789 65.9173 52.1389 66.8643 51.4436C67.8113 50.7483 68.9298 50.3239 70.0997 50.216C71.0934 50.1547 72.0873 50.332 72.9985 50.7332H73.0393L76.6185 42.5676H45.3716V62.2263C46.1405 62.2263 46.9571 62.1582 47.8008 62.0698C53.8853 61.3741 59.6321 58.9088 64.3293 54.9793Z" fill="url(#paint6_linear_439_868)"/>
<path d="M80.851 32.9731L63.3631 15.036L39.261 39.7505H77.8706L80.851 32.9731Z" fill="url(#paint7_linear_439_868)"/>
<path d="M88.649 25.1545C87.7576 24.7598 86.9002 24.8142 86.6076 25.6512L74.1211 54.0402L75.5841 54.6866L89.6221 26.9781C90.0576 26.216 89.5404 25.5491 88.649 25.1545Z" fill="url(#paint8_linear_439_868)"/>
<path d="M66.3638 49.3928C65.385 49.3928 64.4462 49.0044 63.7535 48.313C63.0607 47.6215 62.6706 46.6834 62.6688 45.7047C62.6688 46.6828 62.2803 47.6209 61.5886 48.3125C60.897 49.0042 59.9589 49.3928 58.9807 49.3928C59.9595 49.3946 60.8976 49.7846 61.589 50.4774C62.2805 51.1701 62.6688 52.1089 62.6688 53.0877C62.6688 52.1077 63.0581 51.1679 63.7511 50.475C64.444 49.7821 65.3838 49.3928 66.3638 49.3928Z" fill="white"/>
<path d="M55.5719 46.5619C54.8211 46.5619 54.1011 46.2636 53.5702 45.7328C53.0394 45.2019 52.7411 44.4819 52.7411 43.7311C52.7411 44.4819 52.4429 45.2019 51.912 45.7328C51.3812 46.2636 50.6612 46.5619 49.9104 46.5619C50.6612 46.5619 51.3812 46.8601 51.912 47.391C52.4429 47.9218 52.7411 48.6419 52.7411 49.3926C52.7411 48.6419 53.0394 47.9218 53.5702 47.391C54.1011 46.8601 54.8211 46.5619 55.5719 46.5619Z" fill="white"/>
<path d="M64.5334 37.641C65.5631 37.641 66.3979 36.8062 66.3979 35.7765C66.3979 34.7468 65.5631 33.912 64.5334 33.912C63.5037 33.912 62.6689 34.7468 62.6689 35.7765C62.6689 36.8062 63.5037 37.641 64.5334 37.641Z" fill="white"/>
<path d="M79.1703 63.0428L64.5267 57.8168C60.0629 61.5049 55.6807 63.2605 49.9647 64.1792C48.4428 64.426 46.9061 64.5715 45.3648 64.6146C19.5956 65.1454 17.1799 35.4295 17.1799 35.4295C17.1799 51.4477 26.3934 71.011 47.2905 73.5356C54.4082 74.3929 64.0572 74.216 73.0869 68.3436C76.6186 66.0436 78.5851 64.0363 79.1703 63.0428Z" fill="url(#paint9_linear_439_868)"/>
<defs>
<linearGradient id="paint0_linear_439_868" x1="12.6425" y1="81.6654" x2="64.9486" y2="121.42" gradientUnits="userSpaceOnUse">
<stop offset="0.14" stop-color="#0193CC"/>
<stop offset="0.88" stop-color="#01D0CC"/>
</linearGradient>
<linearGradient id="paint1_linear_439_868" x1="30.3468" y1="32.7553" x2="30.3468" y2="5.03998" gradientUnits="userSpaceOnUse">
<stop offset="0.1" stop-color="#36326A"/>
<stop offset="0.83" stop-color="#4872C6"/>
</linearGradient>
<linearGradient id="paint2_linear_439_868" x1="49.9103" y1="20.6089" x2="49.9103" y2="5.28485" gradientUnits="userSpaceOnUse">
<stop offset="0.1" stop-color="#36326A"/>
<stop offset="0.83" stop-color="#4872C6"/>
</linearGradient>
<linearGradient id="paint3_linear_439_868" x1="71.9708" y1="63.0563" x2="80.6059" y2="34.9395" gradientUnits="userSpaceOnUse">
<stop offset="0.14" stop-color="#0193CC"/>
<stop offset="0.77" stop-color="#01D0CC"/>
</linearGradient>
<linearGradient id="paint4_linear_439_868" x1="30.7551" y1="62.1242" x2="30.7551" y2="35.5792" gradientUnits="userSpaceOnUse">
<stop offset="0.1" stop-color="#36326A"/>
<stop offset="0.83" stop-color="#4872C6"/>
</linearGradient>
<linearGradient id="paint5_linear_439_868" x1="80.1091" y1="55.1902" x2="80.1091" y2="48.5489" gradientUnits="userSpaceOnUse">
<stop offset="0.1" stop-color="#36326A"/>
<stop offset="0.83" stop-color="#4872C6"/>
</linearGradient>
<linearGradient id="paint6_linear_439_868" x1="60.9951" y1="62.2671" x2="60.9951" y2="42.6085" gradientUnits="userSpaceOnUse">
<stop offset="0.1" stop-color="#36326A"/>
<stop offset="0.83" stop-color="#4872C6"/>
</linearGradient>
<linearGradient id="paint7_linear_439_868" x1="60.056" y1="39.7505" x2="60.056" y2="15.036" gradientUnits="userSpaceOnUse">
<stop offset="0.1" stop-color="#36326A"/>
<stop offset="0.83" stop-color="#4872C6"/>
</linearGradient>
<linearGradient id="paint8_linear_439_868" x1="74.7335" y1="63.9069" x2="83.3618" y2="35.7901" gradientUnits="userSpaceOnUse">
<stop offset="0.14" stop-color="#0193CC"/>
<stop offset="0.88" stop-color="#01D0CC"/>
</linearGradient>
<linearGradient id="paint9_linear_439_868" x1="20.7047" y1="51.4272" x2="78.4422" y2="67.806" gradientUnits="userSpaceOnUse">
<stop offset="0.14" stop-color="#0193CC"/>
<stop offset="0.88" stop-color="#01D0CC"/>
</linearGradient>
</defs>
</svg>
