<svg width="40" height="40" viewBox="0 0 40 40" fill="none" xmlns="http://www.w3.org/2000/svg">
<circle cx="20" cy="20" r="20" fill="url(#paint0_linear_439_904)"/>
<path d="M18.265 13.0892L14.2054 8.40321C13.7374 7.86321 12.8795 7.86561 12.3359 8.41041L8.99747 11.7548C8.00388 12.7496 7.71948 14.2268 8.29428 15.4112C11.7282 22.5211 17.4623 28.2632 24.5674 31.7071C25.7506 32.2819 27.2266 31.9975 28.2202 31.0027L31.5898 27.6271C32.1357 27.0811 32.1369 26.2183 31.5922 25.7503L26.8882 21.7123C26.3962 21.2899 25.6318 21.3451 25.1386 21.8395L23.5018 23.4787C23.418 23.5665 23.3077 23.6244 23.1878 23.6435C23.0679 23.6626 22.9451 23.6418 22.8382 23.5843C20.1627 22.0436 17.9434 19.8214 16.4062 17.144C16.3487 17.0369 16.3278 16.9138 16.3469 16.7937C16.366 16.6737 16.4239 16.5632 16.5118 16.4792L18.1438 14.846C18.6382 14.3492 18.6922 13.5812 18.265 13.088V13.0892Z" stroke="white" stroke-width="1.83999" stroke-linecap="round" stroke-linejoin="round"/>
<defs>
<linearGradient id="paint0_linear_439_904" x1="2.27442" y1="16.6283" x2="41.3174" y2="23.504" gradientUnits="userSpaceOnUse">
<stop offset="0.14" stop-color="#0193CC"/>
<stop offset="0.88" stop-color="#01D0CC"/>
</linearGradient>
</defs>
</svg>
