<svg width="40" height="40" viewBox="0 0 40 40" fill="none" xmlns="http://www.w3.org/2000/svg">
<circle cx="20" cy="20" r="20" fill="url(#paint0_linear_439_901)"/>
<path d="M28.519 11.1423C27.9436 10.6396 25.6148 9.03705 20.4225 9.01557C20.4225 9.01557 14.3015 8.66756 11.3202 11.2625C9.66196 12.835 9.07749 15.1421 9.01406 17.9992C8.95063 20.8563 8.87361 26.2095 14.3151 27.6617H14.3196L14.3151 29.8786C14.3151 29.8786 14.2788 30.7765 14.9041 30.9569C15.6562 31.1804 16.1002 30.4972 16.8206 29.7626C17.2148 29.3587 17.7585 28.7658 18.1708 28.3147C21.8951 28.6112 24.754 27.9323 25.0802 27.8335C25.8323 27.6015 30.0867 27.086 30.7754 21.7327C31.4912 16.2076 30.431 12.719 28.519 11.1423ZM29.1488 21.3289C28.5644 25.7971 25.1164 26.0806 24.4821 26.2739C24.2103 26.3556 21.6957 26.9485 18.5377 26.7551C18.5377 26.7551 16.1817 29.4489 15.4478 30.1492C15.2076 30.3769 14.9448 30.3555 14.9494 29.9043C14.9494 29.6079 14.9675 26.2224 14.9675 26.2224C14.963 26.2224 14.963 26.2224 14.9675 26.2224C10.3552 25.0108 10.627 20.4524 10.6769 18.0679C10.7267 15.6835 11.2024 13.7286 12.607 12.414C15.1306 10.2443 20.3274 10.5665 20.3274 10.5665C24.7177 10.5837 26.82 11.8383 27.3093 12.2593C28.9268 13.574 29.7514 16.7189 29.1488 21.3289ZM22.851 17.8574C22.8692 18.2269 22.2847 18.2527 22.2666 17.8832C22.2167 16.938 21.7501 16.4783 20.7895 16.4267C20.3999 16.4053 20.4361 15.851 20.8213 15.8725C22.0853 15.937 22.7876 16.6244 22.851 17.8574ZM23.7708 18.3429C23.8161 16.5213 22.6154 15.0949 20.3365 14.9359C19.9513 14.9101 19.9921 14.3559 20.3772 14.3817C23.0051 14.5621 24.4051 16.2764 24.3553 18.3558C24.3507 18.7253 23.7617 18.7081 23.7708 18.3429ZM25.9003 18.9186C25.9048 19.2881 25.3158 19.2924 25.3158 18.9229C25.2886 15.4214 22.8284 13.5138 19.8426 13.4923C19.4575 13.488 19.4575 12.9381 19.8426 12.9381C23.1818 12.9596 25.8685 15.1464 25.9003 18.9186ZM25.3883 23.1333V23.1419C24.899 23.9582 23.9837 24.8604 23.0413 24.5726L23.0323 24.5597C22.0763 24.3062 19.8245 23.2064 18.4018 22.1323C17.6678 21.5823 16.9973 20.9336 16.4808 20.3106C16.0141 19.7564 15.5429 19.0991 15.0853 18.3085C14.1202 16.6544 13.9073 15.9155 13.9073 15.9155C13.6037 15.0218 14.5507 14.154 15.416 13.69H15.4251C15.8419 13.4838 16.2406 13.5525 16.508 13.8575C16.508 13.8575 17.0698 14.4934 17.3099 14.807C17.5364 15.0992 17.84 15.5675 17.9986 15.8296C18.275 16.2979 18.1028 16.7747 17.8309 16.9724L17.2873 17.3848C17.0109 17.5953 17.0471 17.9863 17.0471 17.9863C17.0471 17.9863 17.8536 20.8777 20.8666 21.6081C20.8666 21.6081 21.2789 21.6425 21.5009 21.3804L21.9358 20.8649C22.1442 20.6071 22.6472 20.4438 23.141 20.7059C23.807 21.0625 24.6543 21.6167 25.2161 22.1194C25.5333 22.3643 25.6058 22.7381 25.3883 23.1333Z" fill="white"/>
<defs>
<linearGradient id="paint0_linear_439_901" x1="20" y1="0" x2="20" y2="40" gradientUnits="userSpaceOnUse">
<stop stop-color="#7D51A0"/>
<stop offset="1" stop-color="#870CEA" stop-opacity="0.58"/>
</linearGradient>
</defs>
</svg>
